<svg width="12" height="12" viewBox="0 0 12 12" fill="none" xmlns="http://www.w3.org/2000/svg">
<g clip-path="url(#clip0_26_6)">
<path d="M12 7.023V4.977C12.0003 4.89248 11.9838 4.80875 11.9516 4.73062C11.9194 4.65249 11.872 4.5815 11.8123 4.52174C11.7525 4.46198 11.6815 4.41463 11.6034 4.3824C11.5253 4.35018 11.4415 4.33373 11.357 4.334H7.66701V0.642997C7.66728 0.558314 7.65076 0.474418 7.61842 0.396155C7.58607 0.317892 7.53854 0.246813 7.47857 0.187026C7.41859 0.127239 7.34737 0.0799277 7.269 0.047826C7.19064 0.0157244 7.10669 -0.000531621 7.02201 -2.75737e-06H4.97701C4.8925 -0.000266866 4.80877 0.0161845 4.73063 0.0484048C4.6525 0.080625 4.58151 0.127978 4.52175 0.187739C4.46199 0.247499 4.41464 0.318488 4.38242 0.39662C4.3502 0.474751 4.33375 0.558483 4.33401 0.642997V4.333H0.643013C0.558329 4.33273 0.474433 4.34925 0.39617 4.38159C0.317907 4.41394 0.246829 4.46147 0.187041 4.52144C0.127254 4.58142 0.079943 4.65264 0.0478413 4.731C0.0157396 4.80937 -0.000516362 4.89332 1.25014e-05 4.978V7.024C1.25014e-05 7.38 0.287013 7.667 0.643013 7.667H4.33301V11.358C4.33301 11.714 4.62101 12.001 4.97701 12.001H7.02301C7.10753 12.0013 7.19126 11.9848 7.26939 11.9526C7.34752 11.9204 7.41851 11.873 7.47827 11.8133C7.53803 11.7535 7.58538 11.6825 7.6176 11.6044C7.64982 11.5262 7.66628 11.4425 7.66601 11.358V7.668H11.357C11.4418 7.66826 11.5258 7.65172 11.6041 7.61931C11.6824 7.5869 11.7535 7.53928 11.8133 7.4792C11.8731 7.41912 11.9204 7.34778 11.9525 7.2693C11.9845 7.19082 12.0007 7.10676 12 7.022V7.023Z" fill="#FF7E1B"/>
</g>
<defs>
<clipPath id="clip0_26_6">
<rect width="12" height="12" fill="white"/>
</clipPath>
</defs>
</svg>
